<svg width="551" height="575" viewBox="0 0 551 575" fill="none" xmlns="http://www.w3.org/2000/svg">
<path d="M298.704 110.701C299.386 105.22 304.388 101.305 309.827 102.26C334.744 106.634 358.637 115.701 380.222 129.011C404.647 144.073 425.546 164.214 441.498 188.068C457.45 211.922 468.082 238.929 472.672 267.256C477.262 295.582 475.703 324.565 468.1 352.236C460.497 379.907 447.029 405.617 428.61 427.622C410.191 449.626 387.252 467.41 361.351 479.764C335.451 492.118 307.195 498.754 278.502 499.221C253.147 499.634 227.976 495.22 204.322 486.249C199.158 484.29 196.859 478.369 199.073 473.309C201.288 468.25 207.176 465.971 212.35 467.901C233.366 475.738 255.691 479.59 278.177 479.224C304 478.803 329.43 472.831 352.741 461.712C376.051 450.593 396.696 434.588 413.274 414.784C429.851 394.98 441.972 371.841 448.815 346.937C455.658 322.033 457.061 295.949 452.93 270.455C448.799 244.961 439.23 220.654 424.873 199.186C410.516 177.718 391.707 159.59 369.724 146.035C350.582 134.231 329.424 126.135 307.354 122.134C301.919 121.149 298.022 116.182 298.704 110.701Z" fill="#7255EE"/>
<path d="M445.424 404.318C387.395 498.304 264.163 527.453 170.177 469.424C76.1908 411.395 47.0417 288.163 105.071 194.177C163.1 100.191 286.332 71.0417 380.318 129.071C474.304 187.1 503.453 310.332 445.424 404.318ZM122.088 204.684C69.8623 289.271 96.0964 400.181 180.684 452.407C265.271 504.633 376.181 478.399 428.407 393.811C480.633 309.224 454.398 198.314 369.811 146.088C285.224 93.8623 174.314 120.096 122.088 204.684Z" fill="#7255EE" fill-opacity="0.3"/>
<path d="M120.225 380.571C75.2353 295.031 108.107 189.216 193.647 144.225C279.187 99.2353 385.003 132.107 429.993 217.647C474.983 303.187 442.111 409.003 356.571 453.993C271.031 498.983 165.216 466.111 120.225 380.571ZM406.76 229.867C368.519 157.158 278.575 129.216 205.867 167.458C133.158 205.7 105.216 295.643 143.458 368.352C181.7 441.061 271.643 469.002 344.352 430.76C417.061 392.519 445.002 302.575 406.76 229.867Z" fill="#2F96FD" fill-opacity="0.3"/>
<path d="M417.128 215.111C421.882 212.3 423.48 206.148 420.401 201.563C405.034 178.674 384.446 159.697 360.28 146.234C336.114 132.77 309.143 125.251 281.593 124.229C276.074 124.025 271.684 128.621 271.795 134.142L271.921 140.391C272.032 145.913 276.602 150.264 282.119 150.524C305.016 151.604 327.402 157.965 347.505 169.165C367.607 180.365 384.797 196.053 397.765 214.954C400.89 219.508 406.995 221.105 411.749 218.293L417.128 215.111Z" fill="#2F96FD"/>
<path d="M331.49 91.0297C332.9 85.8711 338.233 82.8117 343.326 84.4421C379.288 95.9535 411.829 116.35 437.9 143.808C466.196 173.611 485.79 210.594 494.554 250.744C503.319 290.895 500.92 332.679 487.617 371.562C474.315 410.446 450.617 444.943 419.096 471.311C387.574 497.679 349.433 514.91 308.811 521.135C268.19 527.36 226.639 522.34 188.668 506.621C150.697 490.902 117.757 465.083 93.4217 431.967C71.0004 401.456 56.6727 365.824 51.6949 328.394C50.9899 323.093 54.9432 318.384 60.2697 317.908C65.5962 317.432 70.2768 321.369 71.0033 326.667C75.6525 360.573 88.7006 392.839 109.027 420.5C131.268 450.765 161.373 474.361 196.076 488.728C230.778 503.094 268.753 507.681 305.878 501.993C343.003 496.304 377.862 480.555 406.67 456.457C435.479 432.358 457.137 400.83 469.294 365.294C481.452 329.757 483.644 291.569 475.634 254.875C467.624 218.18 449.717 184.38 423.856 157.143C400.221 132.25 370.767 113.707 338.215 103.142C333.129 101.491 330.081 96.1883 331.49 91.0297Z" fill="#00D674"/>
<path d="M498.674 276.943C510.707 400.623 420.2 510.64 296.52 522.674C172.839 534.707 62.8219 444.2 50.7885 320.519C38.7551 196.839 129.263 86.8219 252.943 74.7884C376.623 62.755 486.64 153.262 498.674 276.943ZM70.0634 318.644C81.0611 431.679 181.609 514.396 294.644 503.399C407.679 492.401 490.396 391.853 479.399 278.818C468.401 165.783 367.853 83.0656 254.818 94.0634C141.783 105.061 59.0657 205.609 70.0634 318.644Z" fill="#00D674" fill-opacity="0.3"/>
<path d="M151.8 288.76C151.8 288.253 151.987 287.84 152.36 287.52C152.733 287.173 153.187 287 153.72 287H171.44C171.44 288.12 171.213 288.947 170.76 289.48C170.307 290.013 169.6 290.28 168.64 290.28H155.56V299.24H166.76C166.76 300.36 166.533 301.187 166.08 301.72C165.627 302.253 164.933 302.52 164 302.52H155.56V311.72H169.48C170.413 311.72 171.107 311.987 171.56 312.52C172.013 313.053 172.24 313.88 172.24 315H153.72C153.187 315 152.733 314.84 152.36 314.52C151.987 314.173 151.8 313.747 151.8 313.24V288.76ZM176.839 289.88C176.839 288.867 177.146 288.08 177.759 287.52C178.399 286.933 179.279 286.64 180.399 286.64L195.919 310.24L196.199 310L195.039 308.08V286.64C196.266 286.64 197.186 286.907 197.799 287.44C198.439 287.973 198.759 288.747 198.759 289.76V312.4C198.759 313.253 198.452 313.96 197.839 314.52C197.252 315.08 196.492 315.36 195.559 315.36L179.679 291.24L179.399 291.48L180.559 293.4V312.24C180.559 313.253 180.239 314.027 179.599 314.56C178.986 315.093 178.066 315.36 176.839 315.36V289.88ZM211.723 290.32H201.963C201.963 288.107 203.003 287 205.083 287H225.203C225.203 289.213 224.163 290.32 222.083 290.32H215.483V312.24C215.483 313.253 215.163 314.027 214.523 314.56C213.883 315.093 212.949 315.36 211.723 315.36V290.32ZM229.417 288.76C229.417 288.253 229.591 287.84 229.937 287.52C230.311 287.173 230.777 287 231.337 287H242.377C244.964 287 247.017 287.76 248.537 289.28C250.084 290.773 250.857 292.773 250.857 295.28C250.857 298.427 249.484 300.653 246.737 301.96V302.08C247.937 302.587 248.857 303.36 249.497 304.4C250.137 305.413 250.457 306.653 250.457 308.12V312.24C250.457 313.253 250.137 314.027 249.497 314.56C248.857 315.093 247.924 315.36 246.697 315.36V308.36C246.697 306.787 246.337 305.6 245.617 304.8C244.924 303.973 243.884 303.56 242.497 303.56H233.137V312.24C233.137 313.253 232.817 314.027 232.177 314.56C231.564 315.093 230.644 315.36 229.417 315.36V288.76ZM242.257 300.32C243.724 300.32 244.884 299.867 245.737 298.96C246.617 298.053 247.057 296.813 247.057 295.24C247.057 293.64 246.644 292.413 245.817 291.56C244.991 290.707 243.804 290.28 242.257 290.28H233.137V300.32H242.257ZM263.221 304.84L253.261 287.12C253.448 286.987 253.728 286.88 254.101 286.8C254.501 286.693 254.874 286.64 255.221 286.64C256.581 286.64 257.554 287.213 258.141 288.36L264.981 301.2L264.141 302.88L264.421 303.04L272.021 288.36C272.634 287.213 273.621 286.64 274.981 286.64C275.328 286.64 275.688 286.693 276.061 286.8C276.461 286.88 276.754 286.987 276.941 287.12L266.981 304.84V312.24C266.981 313.253 266.661 314.027 266.021 314.56C265.381 315.093 264.448 315.36 263.221 315.36V304.84Z" fill="#FFC600"/>
<path d="M301.039 315.36C300.079 315.36 299.292 315.133 298.679 314.68C298.066 314.2 297.652 313.533 297.439 312.68L290.839 287C291.239 286.76 291.746 286.64 292.359 286.64C293.132 286.64 293.786 286.84 294.319 287.24C294.852 287.613 295.199 288.133 295.359 288.8L299.719 307.76L299.079 310.12L299.319 310.2L305.759 287.88C305.866 287.48 306.066 287.173 306.359 286.96C306.679 286.747 307.052 286.64 307.479 286.64C307.879 286.64 308.239 286.747 308.559 286.96C308.879 287.173 309.092 287.48 309.199 287.88L314.759 307.92L314.199 310.36L314.439 310.44L319.599 288.8C319.759 288.133 320.092 287.613 320.599 287.24C321.132 286.84 321.772 286.64 322.519 286.64C323.132 286.64 323.666 286.76 324.119 287L317.519 312.68C317.306 313.533 316.879 314.2 316.239 314.68C315.626 315.133 314.839 315.36 313.879 315.36L307.039 291.16L306.799 291.24L307.319 293.12L301.039 315.36ZM332.346 315.36C330.053 315.36 328.2 314.747 326.786 313.52C325.4 312.293 324.706 310.68 324.706 308.68C324.706 306.653 325.44 305.027 326.906 303.8C328.373 302.547 330.306 301.92 332.706 301.92C335.266 301.92 337.373 302.827 339.026 304.64L339.186 304.48C338.893 304.16 338.56 303.827 338.186 303.48V301.8C338.186 300.44 337.76 299.387 336.906 298.64C336.053 297.893 334.84 297.52 333.266 297.52C330.466 297.52 328.466 298.627 327.266 300.84C326.84 300.627 326.48 300.347 326.186 300C325.92 299.627 325.786 299.253 325.786 298.88C325.786 298.16 326.146 297.48 326.866 296.84C327.586 296.173 328.533 295.64 329.706 295.24C330.906 294.84 332.16 294.64 333.466 294.64C336 294.64 337.986 295.267 339.426 296.52C340.893 297.773 341.626 299.507 341.626 301.72V312.68C341.626 313.613 341.36 314.293 340.826 314.72C340.293 315.147 339.453 315.36 338.306 315.36V313.48C338.866 312.893 339.173 312.547 339.226 312.44L339.066 312.28C337.333 314.333 335.093 315.36 332.346 315.36ZM332.946 312.6C334.6 312.6 335.893 312.253 336.826 311.56C337.786 310.867 338.266 309.907 338.266 308.68C338.266 307.453 337.8 306.48 336.866 305.76C335.933 305.04 334.653 304.68 333.026 304.68C331.506 304.68 330.306 305.04 329.426 305.76C328.573 306.453 328.146 307.427 328.146 308.68C328.146 309.933 328.56 310.907 329.386 311.6C330.24 312.267 331.426 312.6 332.946 312.6ZM353.198 315.36C351.304 315.36 349.891 314.827 348.958 313.76C348.024 312.667 347.558 311.24 347.558 309.48V297.8H343.838C343.838 296.893 344.038 296.2 344.438 295.72C344.838 295.24 345.384 295 346.078 295H347.598V291.2C347.598 290.32 347.878 289.68 348.438 289.28C349.024 288.853 349.891 288.64 351.038 288.64V295H356.358C356.358 296.867 355.518 297.8 353.838 297.8H351.078V309.36C351.078 310.427 351.264 311.187 351.638 311.64C352.038 312.067 352.744 312.28 353.758 312.28C354.691 312.28 355.571 312.04 356.398 311.56C356.744 311.907 356.918 312.373 356.918 312.96C356.918 313.6 356.584 314.16 355.918 314.64C355.251 315.12 354.344 315.36 353.198 315.36ZM369.136 315.36C367.509 315.36 366.056 315.067 364.776 314.48C363.496 313.893 362.496 313.067 361.776 312C361.083 310.933 360.736 309.72 360.736 308.36V301.88C360.736 300.467 361.083 299.213 361.776 298.12C362.496 297.027 363.483 296.173 364.736 295.56C365.989 294.947 367.429 294.64 369.056 294.64C370.576 294.64 371.923 294.867 373.096 295.32C374.296 295.747 375.229 296.36 375.896 297.16C376.563 297.96 376.896 298.867 376.896 299.88C376.896 300.547 376.629 301.093 376.096 301.52C375.589 301.92 374.923 302.093 374.096 302.04C374.096 300.76 373.629 299.72 372.696 298.92C371.789 298.12 370.603 297.72 369.136 297.72C367.669 297.72 366.483 298.12 365.576 298.92C364.669 299.693 364.216 300.707 364.216 301.96V308.2C364.216 309.4 364.683 310.387 365.616 311.16C366.549 311.907 367.749 312.28 369.216 312.28C370.683 312.28 371.869 311.88 372.776 311.08C373.709 310.28 374.176 309.253 374.176 308C375.029 307.947 375.709 308.12 376.216 308.52C376.749 308.893 377.016 309.427 377.016 310.12C377.016 311.133 376.683 312.04 376.016 312.84C375.349 313.64 374.416 314.267 373.216 314.72C372.016 315.147 370.656 315.36 369.136 315.36ZM381.605 289.6C381.605 288.64 381.898 287.907 382.485 287.4C383.071 286.893 383.938 286.64 385.085 286.64V297.16C384.711 297.587 384.418 297.96 384.205 298.28L384.365 298.44C385.191 297.32 386.231 296.413 387.485 295.72C388.738 295 390.098 294.64 391.565 294.64C393.725 294.64 395.431 295.28 396.685 296.56C397.938 297.84 398.565 299.493 398.565 301.52V312.8C398.565 313.68 398.271 314.333 397.685 314.76C397.125 315.16 396.258 315.36 395.085 315.36V301.88C395.085 300.6 394.725 299.587 394.005 298.84C393.285 298.093 392.191 297.72 390.725 297.72C389.738 297.72 388.805 297.933 387.925 298.36C387.071 298.76 386.378 299.32 385.845 300.04C385.338 300.733 385.085 301.493 385.085 302.32V312.8C385.085 313.68 384.791 314.333 384.205 314.76C383.645 315.16 382.778 315.36 381.605 315.36V289.6Z" fill="#FF4320"/>
<path d="M281.94 90.18C280.753 90.18 279.693 89.9533 278.76 89.5C277.84 89.0467 277.12 88.4133 276.6 87.6C276.08 86.7867 275.82 85.86 275.82 84.82V81.14C275.82 80.1 276.073 79.18 276.58 78.38C277.1 77.5667 277.813 76.94 278.72 76.5C279.627 76.0467 280.667 75.82 281.84 75.82C283.013 75.82 284.053 76 284.96 76.36C285.88 76.7067 286.593 77.2 287.1 77.84C287.607 78.4667 287.86 79.1867 287.86 80C287.86 80.4933 287.693 80.8867 287.36 81.18C287.04 81.46 286.607 81.6 286.06 81.6C285.793 81.6 285.5 81.56 285.18 81.48C285.207 81.16 285.22 80.8467 285.22 80.54C285.22 79.8333 284.907 79.26 284.28 78.82C283.653 78.38 282.84 78.16 281.84 78.16C280.853 78.16 280.047 78.44 279.42 79C278.807 79.5467 278.5 80.26 278.5 81.14V84.82C278.5 85.7133 278.82 86.44 279.46 87C280.1 87.56 280.927 87.84 281.94 87.84C282.94 87.84 283.753 87.62 284.38 87.18C285.007 86.74 285.32 86.1733 285.32 85.48C285.32 85.16 285.307 84.8533 285.28 84.56C285.613 84.4933 285.893 84.46 286.12 84.46C286.68 84.46 287.127 84.6067 287.46 84.9C287.793 85.1933 287.96 85.5933 287.96 86.1C287.96 86.8867 287.707 87.5933 287.2 88.22C286.693 88.8333 285.98 89.3133 285.06 89.66C284.153 90.0067 283.113 90.18 281.94 90.18ZM295.411 90.18C294.318 90.18 293.318 89.9667 292.411 89.54C291.504 89.1 290.784 88.5067 290.251 87.76C289.731 87.0133 289.471 86.2 289.471 85.32V80.66C289.471 79.78 289.731 78.9733 290.251 78.24C290.784 77.4933 291.504 76.9067 292.411 76.48C293.318 76.04 294.318 75.82 295.411 75.82C296.504 75.82 297.504 76.04 298.411 76.48C299.331 76.9067 300.051 77.4933 300.571 78.24C301.104 78.9733 301.371 79.78 301.371 80.66V85.32C301.371 86.2 301.104 87.0133 300.571 87.76C300.051 88.5067 299.331 89.1 298.411 89.54C297.504 89.9667 296.504 90.18 295.411 90.18ZM295.411 87.84C296.411 87.84 297.211 87.6067 297.811 87.14C298.411 86.66 298.711 86.04 298.711 85.28V80.72C298.711 79.9467 298.411 79.3267 297.811 78.86C297.211 78.38 296.411 78.14 295.411 78.14C294.424 78.14 293.631 78.38 293.031 78.86C292.431 79.3267 292.131 79.9467 292.131 80.72V85.28C292.131 86.04 292.431 86.66 293.031 87.14C293.631 87.6067 294.424 87.84 295.411 87.84ZM304.649 90C304.276 90 303.956 89.8867 303.689 89.66C303.436 89.42 303.309 89.1267 303.309 88.78V77.22C303.309 76.8733 303.436 76.5867 303.689 76.36C303.942 76.12 304.262 76 304.649 76H309.089C310.276 76 311.322 76.2267 312.229 76.68C313.149 77.1333 313.856 77.7733 314.349 78.6C314.856 79.4133 315.109 80.3467 315.109 81.4V84.56C315.109 85.6133 314.856 86.5533 314.349 87.38C313.842 88.2067 313.129 88.8533 312.209 89.32C311.302 89.7733 310.262 90 309.089 90H304.649ZM308.889 87.7C310.049 87.7 310.929 87.44 311.529 86.92C312.129 86.3867 312.429 85.6067 312.429 84.58V81.36C312.429 80.36 312.129 79.6 311.529 79.08C310.929 78.56 310.049 78.3 308.889 78.3H305.989V87.7H308.889ZM317.118 77.22C317.118 76.8867 317.244 76.6 317.498 76.36C317.764 76.12 318.084 76 318.458 76H327.378C327.378 76.8 327.238 77.3867 326.957 77.76C326.691 78.12 326.251 78.3 325.638 78.3H319.798V81.78H325.118C325.118 82.58 324.978 83.1667 324.698 83.54C324.431 83.9 323.991 84.08 323.378 84.08H319.798V87.7H326.058C326.658 87.7 327.091 87.8867 327.358 88.26C327.638 88.62 327.778 89.2 327.778 90H318.458C318.084 90 317.764 89.8867 317.498 89.66C317.244 89.42 317.118 89.1267 317.118 88.78V77.22Z" fill="#00D674"/>
<path d="M157.94 116.18C156.753 116.18 155.693 115.953 154.76 115.5C153.84 115.047 153.12 114.413 152.6 113.6C152.08 112.787 151.82 111.86 151.82 110.82V107.14C151.82 106.1 152.073 105.18 152.58 104.38C153.1 103.567 153.813 102.94 154.72 102.5C155.627 102.047 156.667 101.82 157.84 101.82C159.013 101.82 160.053 102 160.96 102.36C161.88 102.707 162.593 103.2 163.1 103.84C163.607 104.467 163.86 105.187 163.86 106C163.86 106.493 163.693 106.887 163.36 107.18C163.04 107.46 162.607 107.6 162.06 107.6C161.793 107.6 161.5 107.56 161.18 107.48C161.207 107.16 161.22 106.847 161.22 106.54C161.22 105.833 160.907 105.26 160.28 104.82C159.653 104.38 158.84 104.16 157.84 104.16C156.853 104.16 156.047 104.44 155.42 105C154.807 105.547 154.5 106.26 154.5 107.14V110.82C154.5 111.713 154.82 112.44 155.46 113C156.1 113.56 156.927 113.84 157.94 113.84C158.94 113.84 159.753 113.62 160.38 113.18C161.007 112.74 161.32 112.173 161.32 111.48C161.32 111.16 161.307 110.853 161.28 110.56C161.613 110.493 161.893 110.46 162.12 110.46C162.68 110.46 163.127 110.607 163.46 110.9C163.793 111.193 163.96 111.593 163.96 112.1C163.96 112.887 163.707 113.593 163.2 114.22C162.693 114.833 161.98 115.313 161.06 115.66C160.153 116.007 159.113 116.18 157.94 116.18ZM171.411 116.18C170.318 116.18 169.318 115.967 168.411 115.54C167.504 115.1 166.784 114.507 166.251 113.76C165.731 113.013 165.471 112.2 165.471 111.32V106.66C165.471 105.78 165.731 104.973 166.251 104.24C166.784 103.493 167.504 102.907 168.411 102.48C169.318 102.04 170.318 101.82 171.411 101.82C172.504 101.82 173.504 102.04 174.411 102.48C175.331 102.907 176.051 103.493 176.571 104.24C177.104 104.973 177.371 105.78 177.371 106.66V111.32C177.371 112.2 177.104 113.013 176.571 113.76C176.051 114.507 175.331 115.1 174.411 115.54C173.504 115.967 172.504 116.18 171.411 116.18ZM171.411 113.84C172.411 113.84 173.211 113.607 173.811 113.14C174.411 112.66 174.711 112.04 174.711 111.28V106.72C174.711 105.947 174.411 105.327 173.811 104.86C173.211 104.38 172.411 104.14 171.411 104.14C170.424 104.14 169.631 104.38 169.031 104.86C168.431 105.327 168.131 105.947 168.131 106.72V111.28C168.131 112.04 168.431 112.66 169.031 113.14C169.631 113.607 170.424 113.84 171.411 113.84ZM179.309 103.82C179.309 103.207 179.549 102.72 180.029 102.36C180.509 101.987 181.162 101.8 181.989 101.8L186.189 112.36L185.729 113.62L185.929 113.7L190.429 101.82C191.242 101.82 191.889 102.007 192.369 102.38C192.862 102.74 193.109 103.227 193.109 103.84V116.18C191.362 116.18 190.489 115.527 190.489 114.22V107.82L191.169 105.98L190.949 105.9L187.289 115.46C187.196 115.673 187.049 115.847 186.849 115.98C186.662 116.113 186.449 116.18 186.209 116.18C185.969 116.18 185.749 116.113 185.549 115.98C185.362 115.847 185.222 115.667 185.129 115.44L181.469 105.88L181.249 105.96L181.909 107.8V114.22C181.909 115.527 181.042 116.18 179.309 116.18V103.82ZM195.461 103.82C195.461 103.207 195.701 102.72 196.181 102.36C196.661 101.987 197.315 101.8 198.141 101.8L202.341 112.36L201.881 113.62L202.081 113.7L206.581 101.82C207.395 101.82 208.041 102.007 208.521 102.38C209.015 102.74 209.261 103.227 209.261 103.84V116.18C207.515 116.18 206.641 115.527 206.641 114.22V107.82L207.321 105.98L207.101 105.9L203.441 115.46C203.348 115.673 203.201 115.847 203.001 115.98C202.815 116.113 202.601 116.18 202.361 116.18C202.121 116.18 201.901 116.113 201.701 115.98C201.515 115.847 201.375 115.667 201.281 115.44L197.621 105.88L197.401 105.96L198.061 107.8V114.22C198.061 115.527 197.195 116.18 195.461 116.18V103.82ZM217.414 116.18C216.294 116.18 215.28 115.953 214.374 115.5C213.48 115.047 212.78 114.42 212.274 113.62C211.767 112.82 211.514 111.913 211.514 110.9V103.8C211.514 103.16 211.74 102.673 212.194 102.34C212.647 101.993 213.314 101.82 214.194 101.82V110.9C214.194 111.793 214.487 112.507 215.074 113.04C215.66 113.573 216.44 113.84 217.414 113.84C218.387 113.84 219.167 113.573 219.754 113.04C220.34 112.507 220.634 111.793 220.634 110.9V103.8C220.634 103.147 220.86 102.653 221.314 102.32C221.767 101.987 222.434 101.82 223.314 101.82V110.9C223.314 111.913 223.06 112.82 222.554 113.62C222.047 114.42 221.34 115.047 220.434 115.5C219.54 115.953 218.534 116.18 217.414 116.18ZM225.559 103.94C225.559 103.287 225.779 102.773 226.219 102.4C226.659 102.013 227.252 101.82 227.999 101.82L234.759 112.38L234.959 112.22L234.139 110.86V101.82C235.006 101.82 235.659 101.987 236.099 102.32C236.552 102.653 236.779 103.147 236.779 103.8V114.36C236.779 114.853 236.566 115.28 236.139 115.64C235.726 116 235.246 116.18 234.699 116.18L227.579 105.04L227.379 105.22L228.199 106.58V114.2C228.199 114.853 227.972 115.347 227.519 115.68C227.079 116.013 226.426 116.18 225.559 116.18V103.94ZM239.514 103.82C239.514 103.193 239.747 102.707 240.214 102.36C240.68 102 241.34 101.82 242.194 101.82V114.18C242.194 114.82 241.96 115.313 241.494 115.66C241.027 116.007 240.367 116.18 239.514 116.18V103.82ZM250.694 116.18C249.507 116.18 248.447 115.953 247.514 115.5C246.594 115.047 245.874 114.413 245.354 113.6C244.834 112.787 244.574 111.86 244.574 110.82V107.14C244.574 106.1 244.827 105.18 245.334 104.38C245.854 103.567 246.567 102.94 247.474 102.5C248.381 102.047 249.421 101.82 250.594 101.82C251.767 101.82 252.807 102 253.714 102.36C254.634 102.707 255.347 103.2 255.854 103.84C256.361 104.467 256.614 105.187 256.614 106C256.614 106.493 256.447 106.887 256.114 107.18C255.794 107.46 255.361 107.6 254.814 107.6C254.547 107.6 254.254 107.56 253.934 107.48C253.961 107.16 253.974 106.847 253.974 106.54C253.974 105.833 253.661 105.26 253.034 104.82C252.407 104.38 251.594 104.16 250.594 104.16C249.607 104.16 248.801 104.44 248.174 105C247.561 105.547 247.254 106.26 247.254 107.14V110.82C247.254 111.713 247.574 112.44 248.214 113C248.854 113.56 249.681 113.84 250.694 113.84C251.694 113.84 252.507 113.62 253.134 113.18C253.761 112.74 254.074 112.173 254.074 111.48C254.074 111.16 254.061 110.853 254.034 110.56C254.367 110.493 254.647 110.46 254.874 110.46C255.434 110.46 255.881 110.607 256.214 110.9C256.547 111.193 256.714 111.593 256.714 112.1C256.714 112.887 256.461 113.593 255.954 114.22C255.447 114.833 254.734 115.313 253.814 115.66C252.907 116.007 251.867 116.18 250.694 116.18ZM260.065 116.18C259.492 116.113 259.038 115.913 258.705 115.58C258.385 115.247 258.225 114.827 258.225 114.32C258.225 113.933 258.318 113.533 258.505 113.12L263.085 102.7C263.338 102.113 263.778 101.82 264.405 101.82C265.018 101.82 265.452 102.113 265.705 102.7L270.285 113.12C270.472 113.56 270.565 113.96 270.565 114.32C270.565 114.827 270.398 115.247 270.065 115.58C269.745 115.913 269.292 116.113 268.705 116.18L267.025 112.38H261.765L260.065 116.18ZM266.205 110.1L264.005 104.62L263.765 104.72L264.245 105.96L262.565 110.1H266.205ZM274.446 104.32H269.626C269.626 102.773 270.326 102 271.726 102H281.946C281.946 103.547 281.24 104.32 279.826 104.32H277.126V114.2C277.126 114.84 276.9 115.333 276.446 115.68C275.993 116.013 275.326 116.18 274.446 116.18V104.32ZM283.664 103.22C283.664 102.887 283.791 102.6 284.044 102.36C284.311 102.12 284.631 102 285.004 102H293.924C293.924 102.8 293.784 103.387 293.504 103.76C293.238 104.12 292.798 104.3 292.184 104.3H286.344V107.78H291.664C291.664 108.58 291.524 109.167 291.244 109.54C290.978 109.9 290.538 110.08 289.924 110.08H286.344V113.7H292.604C293.204 113.7 293.638 113.887 293.904 114.26C294.184 114.62 294.324 115.2 294.324 116H285.004C284.631 116 284.311 115.887 284.044 115.66C283.791 115.42 283.664 115.127 283.664 114.78V103.22Z" fill="#7255EE"/>
<path d="M210.68 145.18C209.48 145.18 208.433 145.033 207.54 144.74C206.647 144.447 205.96 144.033 205.48 143.5C205.013 142.953 204.78 142.32 204.78 141.6C204.78 140.507 205.52 139.96 207 139.96C207.053 140.973 207.393 141.74 208.02 142.26C208.66 142.78 209.553 143.04 210.7 143.04C211.647 143.04 212.38 142.88 212.9 142.56C213.42 142.227 213.68 141.767 213.68 141.18C213.68 140.793 213.58 140.48 213.38 140.24C213.18 139.987 212.84 139.767 212.36 139.58C211.88 139.38 211.18 139.18 210.26 138.98C208.953 138.673 207.92 138.333 207.16 137.96C206.413 137.587 205.873 137.14 205.54 136.62C205.207 136.087 205.04 135.427 205.04 134.64C205.04 133.88 205.26 133.213 205.7 132.64C206.153 132.067 206.787 131.62 207.6 131.3C208.427 130.98 209.373 130.82 210.44 130.82C211.467 130.82 212.38 130.96 213.18 131.24C213.993 131.507 214.627 131.887 215.08 132.38C215.547 132.873 215.78 133.44 215.78 134.08C215.78 135.067 215.067 135.58 213.64 135.62C213.56 134.7 213.267 134.027 212.76 133.6C212.253 133.173 211.48 132.96 210.44 132.96C209.547 132.96 208.86 133.107 208.38 133.4C207.9 133.693 207.66 134.107 207.66 134.64C207.66 135.013 207.753 135.327 207.94 135.58C208.127 135.82 208.44 136.033 208.88 136.22C209.32 136.393 209.947 136.573 210.76 136.76C212.133 137.067 213.22 137.413 214.02 137.8C214.82 138.173 215.4 138.633 215.76 139.18C216.12 139.713 216.3 140.373 216.3 141.16C216.3 141.973 216.067 142.687 215.6 143.3C215.147 143.9 214.493 144.367 213.64 144.7C212.8 145.02 211.813 145.18 210.68 145.18ZM221.528 133.32H216.708C216.708 131.773 217.408 131 218.808 131H229.028C229.028 132.547 228.322 133.32 226.908 133.32H224.208V143.2C224.208 143.84 223.982 144.333 223.528 144.68C223.075 145.013 222.408 145.18 221.528 145.18V133.32ZM229.901 145.18C229.327 145.113 228.874 144.913 228.541 144.58C228.221 144.247 228.061 143.827 228.061 143.32C228.061 142.933 228.154 142.533 228.341 142.12L232.921 131.7C233.174 131.113 233.614 130.82 234.241 130.82C234.854 130.82 235.287 131.113 235.541 131.7L240.121 142.12C240.307 142.56 240.401 142.96 240.401 143.32C240.401 143.827 240.234 144.247 239.901 144.58C239.581 144.913 239.127 145.113 238.541 145.18L236.861 141.38H231.601L229.901 145.18ZM236.041 139.1L233.841 133.62L233.601 133.72L234.081 134.96L232.401 139.1H236.041ZM242.348 132.22C242.348 131.887 242.475 131.6 242.728 131.36C242.995 131.12 243.315 131 243.688 131H252.748C252.748 131.8 252.608 132.387 252.328 132.76C252.061 133.12 251.621 133.3 251.008 133.3H245.028V136.68H250.348C250.348 137.48 250.208 138.067 249.928 138.44C249.661 138.8 249.221 138.98 248.608 138.98H245.028V143.28C245.028 143.947 244.815 144.433 244.388 144.74C243.961 145.033 243.281 145.18 242.348 145.18V132.22ZM254.633 132.22C254.633 131.887 254.76 131.6 255.013 131.36C255.28 131.12 255.6 131 255.973 131H265.033C265.033 131.8 264.893 132.387 264.613 132.76C264.346 133.12 263.906 133.3 263.293 133.3H257.313V136.68H262.633C262.633 137.48 262.493 138.067 262.213 138.44C261.946 138.8 261.506 138.98 260.893 138.98H257.313V143.28C257.313 143.947 257.1 144.433 256.673 144.74C256.246 145.033 255.566 145.18 254.633 145.18V132.22Z" fill="#2F96FD"/>
</svg>
